<!DOCTYPE svg PUBLIC "-//W3C//DTD SVG 1.1//EN" "http://www.w3.org/Graphics/SVG/1.1/DTD/svg11.dtd">
<!-- Uploaded to: SVG Repo, www.svgrepo.com, Transformed by: SVG Repo Mixer Tools -->
<svg fill="#094e89" height="800px" width="800px" version="1.1" id="Capa_1" xmlns="http://www.w3.org/2000/svg" xmlns:xlink="http://www.w3.org/1999/xlink" viewBox="0 0 40.543 40.543" xml:space="preserve">
<g id="SVGRepo_bgCarrier" stroke-width="0"/>
<g id="SVGRepo_tracerCarrier" stroke-linecap="round" stroke-linejoin="round"/>
<g id="SVGRepo_iconCarrier"> <g> <g id="Capa_1_43_"> </g> <path d="M28.88,8.347c-2.236-1.291-4.791,0.302-7.516,0.693c0.273-2.479,1.123-5.273,3.395-6.994l-1.173-1.548 c-1.791,1.355-2.86,3.189-3.485,5.086C19.166,0.799,14.405,0,14.405,0c-0.604,6.327,3.408,7.879,5.088,8.252 c-0.039,0.272-0.076,0.545-0.104,0.813C16.608,8.726,14,7.009,11.72,8.314c-5.196,2.972-8.697,8.568-8.697,14.981 c0,9.526,8.99,17.248,17.248,17.248c8.34,0,17.248-7.722,17.248-17.248C37.518,16.904,34.045,11.326,28.88,8.347z"/> </g> </g>
</svg>